HIERARCHY
ROOT Hips
{
	OFFSET -3.958830 18.904000 13.208200
	CHANNELS 6 Xposition Yposition Zposition Zrotation Yrotation Xrotation 
	JOINT LHipJoint
	{
		OFFSET 0.000000 0.000000 0.000000
		CHANNELS 3 Zrotation Yrotation Xrotation
		JOINT LeftUpLeg
		{
			OFFSET 1.800000 -1.400000 0.085000
			CHANNELS 3 Zrotation Yrotation Xrotation
			JOINT LeftLeg
			{
				OFFSET 2.215000 -6.000000 0.000000
				CHANNELS 3 Zrotation Yrotation Xrotation
				JOINT LeftFoot
				{
					OFFSET 2.500000 -6.900000 0.000000
					CHANNELS 3 Zrotation Yrotation Xrotation
					JOINT LeftToeBase
					{
						OFFSET 0.200000 -0.500000 1.950000
						CHANNELS 3 Zrotation Yrotation Xrotation
						End Site
						{
							OFFSET 0.000000 0.000000 0.000000
						}
					}
				}
			}
		}
	}
	JOINT RHipJoint
	{
		OFFSET 0.000000 0.000000 0.000000
		CHANNELS 3 Zrotation Yrotation Xrotation
		JOINT RightUpLeg
		{
			OFFSET -1.800000 -1.400000 0.085000
			CHANNELS 3 Zrotation Yrotation Xrotation
			JOINT RightLeg
			{
				OFFSET -2.215000 -6.000000 0.000000
				CHANNELS 3 Zrotation Yrotation Xrotation
				JOINT RightFoot
				{
					OFFSET -2.500000 -6.900000 0.000000
					CHANNELS 3 Zrotation Yrotation Xrotation
					JOINT RightToeBase
					{
						OFFSET -0.200000 -0.500000 1.950000
						CHANNELS 3 Zrotation Yrotation Xrotation
						End Site
						{
							OFFSET 0.000000 0.000000 0.000000
						}
					}
				}
			}
		}
	}
	JOINT LowerBack
	{
		OFFSET 0.000000 0.000000 0.000000
		CHANNELS 3 Zrotation Yrotation Xrotation
		JOINT Spine
		{
			OFFSET -0.087000 1.940000 -0.288900
			CHANNELS 3 Zrotation Yrotation Xrotation
			JOINT Spine1
			{
				OFFSET 0.000000 1.950000 0.060000
				CHANNELS 3 Zrotation Yrotation Xrotation
				JOINT Neck
				{
					OFFSET 0.000000 0.000000 0.000000
					CHANNELS 3 Zrotation Yrotation Xrotation
					JOINT Neck1
					{
						OFFSET 0.000000 1.600000 0.340000
						CHANNELS 3 Zrotation Yrotation Xrotation
						JOINT Head
						{
							OFFSET 0.000000 1.667000 -0.240000
							CHANNELS 3 Zrotation Yrotation Xrotation
							End Site
							{
								OFFSET 0.000000 0.000000 0.000000
							}
						}
					}
				}
				JOINT LeftShoulder
				{
					OFFSET 0.000000 0.000000 0.000000
					CHANNELS 3 Zrotation Yrotation Xrotation
					JOINT LeftArm
					{
						OFFSET 2.700000 1.550000 -0.730000
						CHANNELS 3 Zrotation Yrotation Xrotation
						JOINT LeftForeArm
						{
							OFFSET 5.450000 0.000000 0.000000
							CHANNELS 3 Zrotation Yrotation Xrotation
							JOINT LeftHand
							{
								OFFSET 3.450000 0.000000 0.000000
								CHANNELS 3 Zrotation Yrotation Xrotation
								JOINT LeftHandIndex1
								{
									OFFSET 0.750000 0.000000 0.000000
									CHANNELS 3 Zrotation Yrotation Xrotation
									End Site
									{
										OFFSET 0.000000 0.000000 0.000000
									}
								}
							}
						}
					}
				}
				JOINT RightShoulder
				{
					OFFSET 0.000000 0.000000 0.000000
					CHANNELS 3 Zrotation Yrotation Xrotation
					JOINT RightArm
					{
						OFFSET -2.700000 1.550000 -0.730000
						CHANNELS 3 Zrotation Yrotation Xrotation
						JOINT RightForeArm
						{
							OFFSET -5.450000 0.000000 0.000000
							CHANNELS 3 Zrotation Yrotation Xrotation
							JOINT RightHand
							{
								OFFSET -3.450000 0.000000 0.000000
								CHANNELS 3 Zrotation Yrotation Xrotation
								JOINT RightHandIndex1
								{
									OFFSET -0.750000 0.000000 0.000000
									CHANNELS 3 Zrotation Yrotation Xrotation
									End Site
									{
										OFFSET 0.000000 0.000000 0.000000
									}
								}
							}
						}
					}
				}
			}
		}
	}
}
MOTION
Frames: 7
Frame Time: 0.016667
2.564480 19.184910 -3.674690 1.708045 30.871712 23.155738 -17.721873 16.494706 7.391614 -2.339772 -14.245033 -51.363773 19.120879 -2.318409 25.304769 1.439917 3.703040 3.111593 -3.338200 -2.438560 -2.889920 15.502695 -6.559635 3.682892 -13.026281 12.663541 -31.064198 -9.517006 -1.186263 35.372431 0.410196 -3.971843 1.643693 -2.009980 2.160280 0.773620 1.655824 -20.760222 -9.829367 56.708018 -25.146554 17.276077 -28.096812 20.941702 -52.970217 23.633813 -3.506662 -55.285864 -40.005233 19.755519 43.278765 -1.262270 15.647490 50.423790 54.706755 58.501528 6.211860 -34.395654 -8.827361 25.762335 142.446460 18.013541 82.763075 -4.841977 3.219719 -0.977210 0.728380 -0.014770 -0.481900 -67.180937 -0.581338 -15.951564 -4.681842 21.925592 -33.529988 -138.323646 -27.826126 142.048116 4.205293 4.983792 0.062180 -0.016620 1.864750 1.975790 
2.662440 19.139500 -3.735500 2.674827 30.559372 23.120711 -17.336535 15.509069 7.007749 -0.692802 -13.840907 -52.815274 13.610183 -0.701482 33.616483 1.554729 4.689020 2.802493 -3.298040 -2.296360 -2.993470 16.075330 -6.674455 3.741298 -14.373658 13.467842 -33.740505 -10.085163 -1.912405 40.858539 0.278159 -5.060324 1.266920 -1.890530 2.306240 0.727330 1.021915 -17.802284 -9.440683 59.282422 -28.687197 18.516119 -32.295420 15.231468 -54.442936 24.339599 -4.614990 -55.090914 -42.490606 19.516291 37.319398 2.957040 12.456840 47.268870 56.614886 58.493978 8.525682 -41.075158 -15.262801 26.947628 140.991659 18.923071 75.669658 -5.156813 3.144992 -1.064480 0.776970 -0.078750 -0.387800 -70.750236 -0.697018 -17.765641 -2.183570 21.199712 -39.420628 -137.255258 -25.355799 141.326960 4.470063 5.458101 0.032480 0.088440 1.831070 2.062770 
2.752540 19.062840 -3.868870 2.100718 28.088109 19.599658 -17.282983 15.565163 6.726556 1.193821 -13.483389 -52.157632 10.518811 0.676401 41.810143 1.603782 6.054888 2.330826 -3.008300 -1.892360 -2.858350 16.234608 -6.407607 3.694436 -13.253412 13.106018 -35.093949 -11.436210 -2.049362 46.018873 0.022636 -5.922036 0.972298 -1.617130 2.220220 0.648420 0.998037 -16.517790 -9.212194 55.831497 -30.793368 27.947807 -34.914440 11.158876 -61.112661 25.327290 -7.263898 -50.091966 -45.157228 20.265087 36.570560 3.736580 10.395170 38.299860 51.338477 53.275701 5.508166 -42.571940 -22.892100 28.873760 142.487361 18.817286 71.213546 -5.177109 3.230940 -0.983960 0.674700 0.012690 -0.283460 -68.467859 4.963978 -19.186811 -2.071583 18.172702 -45.958568 -127.836886 -12.880713 123.700260 3.868713 4.987831 0.020730 0.240460 1.674130 2.057070 
2.825460 19.006600 -4.008940 2.234214 25.214293 15.100457 -16.948684 15.374131 6.085106 0.685236 -13.093171 -48.341542 9.088122 1.705279 48.288125 1.821076 7.367609 1.925614 -3.096610 -1.957610 -3.018390 16.672409 -6.560046 3.505441 -11.763418 12.043268 -36.068129 -13.678786 -1.918897 51.068433 -0.065161 -7.047266 0.567342 -1.601850 2.325590 0.657020 0.321863 -13.820006 -8.764381 53.655986 -35.322012 37.861255 -39.810997 4.123533 -65.475180 24.292150 -10.275883 -46.154899 -42.141301 18.168871 34.774513 3.617820 7.727770 36.078790 50.201118 48.463834 5.975322 -42.871738 -33.019846 29.512839 143.692514 20.492429 67.395547 -5.528389 3.388227 -1.133220 0.758950 -0.132580 -0.302890 -67.397765 8.159476 -19.510689 1.288617 13.924925 -60.340569 -122.344303 4.500153 107.413408 3.426755 4.160879 0.015790 0.213920 1.766560 2.102550 
2.847600 18.958560 -4.175940 2.485850 21.383958 6.449960 -16.593521 15.443642 5.061548 3.508581 -10.720244 -40.460924 4.029249 5.464695 52.751470 1.906844 8.506655 1.485335 -2.862420 -1.673760 -2.873550 17.004260 -7.496172 3.245542 -7.852418 10.855434 -32.215357 -19.852132 1.477321 54.489577 -0.423779 -8.132960 0.161608 -1.402470 2.237300 0.689650 -0.802036 -9.525696 -7.171271 52.326692 -39.547685 52.837282 -39.917945 -7.505954 -67.174761 23.154679 -11.338886 -42.099517 -45.503771 14.289727 31.587320 1.917690 4.038870 28.055810 50.547853 41.628694 9.361985 -42.085655 -41.739550 30.576966 147.048500 24.951229 65.878084 -5.826809 3.333195 -1.136340 0.719730 -0.080530 -0.251080 -66.481573 1.502570 -11.122850 3.706915 18.782336 -123.015507 -141.272687 54.404427 82.751232 3.869825 4.213913 0.061930 0.225240 1.648780 2.093450 
2.748860 18.853030 -4.671560 5.229219 17.135461 -21.964534 -15.291461 15.552684 3.646720 4.764299 -6.898704 -10.188642 -0.254256 10.189583 55.471985 2.382291 10.246895 1.170658 -2.515680 -1.123020 -2.782250 17.825495 -10.763243 2.087019 -6.843064 4.660581 -9.156315 -27.220414 6.639657 55.592905 -0.908467 -9.602052 -0.367764 -0.977980 2.244870 0.778700 -4.530313 -0.102960 -6.368844 46.508497 -64.753512 79.147675 -53.560333 -27.859003 -49.747816 15.829151 -12.473976 -30.882462 -29.124908 5.277691 22.489866 0.233480 -3.063320 14.028920 50.467538 25.771474 6.080353 -19.757632 -41.307780 7.624145 148.476775 33.742423 68.852029 -5.942330 3.315989 -1.373540 0.778500 -0.094480 -0.144240 -65.830190 -0.019416 -2.673641 3.607828 8.537269 -101.703876 -110.676242 27.693107 73.638720 1.860293 1.827690 0.180510 0.275670 1.502030 2.205870 
2.867180 18.310730 -5.387370 6.412023 4.153368 -65.530161 -14.474661 10.759170 2.621370 12.742435 -2.117901 37.802722 -10.327632 21.874169 50.784546 3.235887 12.756121 0.469956 -1.754840 -0.022230 -2.400210 19.212829 -12.894068 2.152792 -7.067507 -1.346041 27.874834 -38.031810 11.111435 53.144634 -1.813441 -10.574574 -0.766261 -0.354000 1.805030 0.799850 -5.955047 6.148001 -8.922577 70.386119 -58.877184 60.067867 -47.052972 26.422591 25.211008 7.994982 -18.695637 -16.048003 -16.289640 -2.856082 27.777881 6.535290 -11.760470 -7.648160 55.316690 -28.610799 -5.070114 24.884926 -12.669815 -29.892625 157.058106 49.932051 65.280533 -4.407940 6.733532 -1.254380 0.399770 0.338920 -0.044700 -71.031483 49.535414 -25.800371 -79.110407 -69.465044 149.726318 -158.899385 -82.466569 54.677138 4.137886 -6.283927 0.479780 0.412800 1.194480 2.307940 
